<svg xmlns="http://www.w3.org/2000/svg" width="24" height="18" viewBox="0 0 24 18">
  <path fill="#ffffff" d="M1.48494611,9.83097122 L4.38814484,6.24018797 L7.29134356,9.83097122 C7.55697578,10.1034884 7.9879159,10.1034884 8.25354812,9.83097122 C8.51918034,9.55842008 8.51918034,9.11710159 8.25354812,8.84455045 L4.90346863,4.70038935 C4.76166471,4.55512597 4.57349725,4.49356794 4.38811092,4.50326799 C4.20272459,4.49356794 4.01459105,4.55512597 3.87278712,4.70038935 L0.522741549,8.84455045 C0.257143245,9.11710159 0.257143245,9.55842008 0.522741549,9.83097122 C0.78837377,10.1034884 1.21931389,10.1034884 1.48494611,9.83097122 Z M16.8137022,0.116468468 C16.4830525,-0.0709867515 16.0597435,0.0403603604 15.8688288,0.364803392 L7.22218124,17.0265098 C7.03126656,17.3509189 7.11012189,17.8468765 7.47536619,17.9527631 C7.92224695,18.0820859 8.22935877,18.0288373 8.42027345,17.7044282 L17.0668871,1.04272178 C17.2584801,0.717566508 17.1450302,0.303211447 16.8137022,0.116468468 Z M19.0970643,4.70044746 L15.7463404,8.84389632 C15.4807082,9.11644746 15.4807082,9.55776595 15.7463404,9.83031709 C16.0119726,10.1028682 16.4429127,10.1028682 16.708545,9.83031709 L19.6117437,6.23953384 L22.5149424,9.83031709 C22.7805746,10.1028682 23.2115148,10.1028682 23.477147,9.83031709 C23.7427453,9.55779987 23.7427453,9.11644746 23.477147,8.84389632 L20.1271014,4.69973521 C19.9852975,4.55447183 19.79713,4.49287989 19.6117776,4.50261386 C19.4270018,4.4929138 19.2388682,4.55518407 19.0970643,4.70044746 Z"/>
</svg>
