<svg xmlns="http://www.w3.org/2000/svg" width="24" height="21" viewBox="0 0 24 21">
  <path fill="#FFF" d="M6.16129412,14.0114118 L2.00945098,10.6545882 L6.16129412,7.29776471 C6.47639216,6.99062745 6.47639216,6.49235294 6.16129412,6.18521569 C5.84615686,5.87807843 5.33588235,5.87807843 5.0207451,6.18521569 L0.229058824,10.0587451 C0.0610980392,10.2227059 -0.0100784314,10.4402745 0.0011372549,10.6546275 C-0.0100784314,10.8689804 0.0610980392,11.0865098 0.229058824,11.2504706 L5.0207451,15.1239608 C5.33588235,15.4310588 5.84615686,15.4310588 6.16129412,15.1239608 C6.47639216,14.8168235 6.47639216,14.318549 6.16129412,14.0114118 Z M17.5658431,0.134666667 C17.1835294,-0.0820784314 16.6940784,0.0466666667 16.4733333,0.421803922 L6.47564706,19.686902 C6.25490196,20.062 6.34607843,20.635451 6.76839216,20.7578824 C7.28509804,20.9074118 7.64019608,20.8458431 7.86094118,20.4707451 L17.8585882,1.20564706 C18.0801176,0.829686275 17.9489412,0.350588235 17.5658431,0.134666667 Z M23.77,10.0587451 L18.9791373,6.18447059 C18.664,5.87733333 18.1537255,5.87733333 17.8385882,6.18447059 C17.523451,6.49160784 17.523451,6.98988235 17.8385882,7.29701961 L21.9904314,10.6538431 L17.8385882,14.0106667 C17.523451,14.3178039 17.523451,14.8160784 17.8385882,15.1232157 C18.1536863,15.4303137 18.664,15.4303137 18.9791373,15.1232157 L23.7708235,11.2497255 C23.9387843,11.0857647 24.01,10.8681961 23.9987451,10.6538824 C24.0099608,10.4402353 23.9379608,10.2227059 23.77,10.0587451 Z"/>
</svg>
